<mxfile host="app.diagrams.net" agent="Mozilla/5.0 (X11; Linux x86_64) AppleWebKit/537.36 (KHTML, like Gecko) Chrome/129.0.0.0 Safari/537.36" version="24.8.4">
  <diagram name="Страница — 1" id="_op5UzW_efzeJAtJoRqh">
    <mxGraphModel dx="3453" dy="1030" grid="1" gridSize="10" guides="1" tooltips="1" connect="1" arrows="1" fold="1" page="0" pageScale="1" pageWidth="827" pageHeight="1169" math="0" shadow="0">
      <root>
        <mxCell id="0" />
        <mxCell id="1" parent="0" />
        <mxCell id="ui9xmZxjVf1nDUsjEgzl-1" value="Безопасность данных" style="ellipse;whiteSpace=wrap;html=1;align=center;newEdgeStyle={&quot;edgeStyle&quot;:&quot;entityRelationEdgeStyle&quot;,&quot;startArrow&quot;:&quot;none&quot;,&quot;endArrow&quot;:&quot;none&quot;,&quot;segment&quot;:10,&quot;curved&quot;:1,&quot;sourcePerimeterSpacing&quot;:0,&quot;targetPerimeterSpacing&quot;:0};treeFolding=1;treeMoving=1;labelBackgroundColor=none;rounded=1;fillColor=#0000FF;strokeColor=#6c8ebf;fontColor=#FFFFFF;fontStyle=1" parent="1" vertex="1">
          <mxGeometry y="289" width="120" height="60" as="geometry" />
        </mxCell>
        <mxCell id="ui9xmZxjVf1nDUsjEgzl-2" value="Публичные данные" style="whiteSpace=wrap;html=1;rounded=1;arcSize=50;align=center;verticalAlign=middle;strokeWidth=1;autosize=1;spacing=4;treeFolding=1;treeMoving=1;newEdgeStyle={&quot;edgeStyle&quot;:&quot;entityRelationEdgeStyle&quot;,&quot;startArrow&quot;:&quot;none&quot;,&quot;endArrow&quot;:&quot;none&quot;,&quot;segment&quot;:10,&quot;curved&quot;:1,&quot;sourcePerimeterSpacing&quot;:0,&quot;targetPerimeterSpacing&quot;:0};labelBackgroundColor=none;fillColor=#B9E0A5;" parent="1" vertex="1">
          <mxGeometry x="160" y="109" width="182" height="44" as="geometry" />
        </mxCell>
        <mxCell id="ui9xmZxjVf1nDUsjEgzl-3" value="" style="edgeStyle=entityRelationEdgeStyle;startArrow=none;endArrow=none;segment=10;curved=1;sourcePerimeterSpacing=0;targetPerimeterSpacing=0;rounded=1;labelBackgroundColor=none;fontColor=default;" parent="1" source="ui9xmZxjVf1nDUsjEgzl-1" target="ui9xmZxjVf1nDUsjEgzl-2" edge="1">
          <mxGeometry relative="1" as="geometry">
            <mxPoint x="120" y="260" as="sourcePoint" />
          </mxGeometry>
        </mxCell>
        <mxCell id="ui9xmZxjVf1nDUsjEgzl-8" value="Внутренние данные" style="whiteSpace=wrap;html=1;rounded=1;arcSize=50;align=center;verticalAlign=middle;strokeWidth=1;autosize=1;spacing=4;treeFolding=1;treeMoving=1;newEdgeStyle={&quot;edgeStyle&quot;:&quot;entityRelationEdgeStyle&quot;,&quot;startArrow&quot;:&quot;none&quot;,&quot;endArrow&quot;:&quot;none&quot;,&quot;segment&quot;:10,&quot;curved&quot;:1,&quot;sourcePerimeterSpacing&quot;:0,&quot;targetPerimeterSpacing&quot;:0};labelBackgroundColor=none;fillColor=#B9E0A5;" parent="1" vertex="1">
          <mxGeometry x="-222" y="568.25" width="182" height="44" as="geometry" />
        </mxCell>
        <mxCell id="ui9xmZxjVf1nDUsjEgzl-9" value="" style="edgeStyle=entityRelationEdgeStyle;startArrow=none;endArrow=none;segment=10;curved=1;sourcePerimeterSpacing=0;targetPerimeterSpacing=0;rounded=1;exitX=0;exitY=0.5;exitDx=0;exitDy=0;labelBackgroundColor=none;fontColor=default;" parent="1" source="ui9xmZxjVf1nDUsjEgzl-1" target="ui9xmZxjVf1nDUsjEgzl-8" edge="1">
          <mxGeometry relative="1" as="geometry">
            <mxPoint x="210" y="500" as="sourcePoint" />
          </mxGeometry>
        </mxCell>
        <mxCell id="ui9xmZxjVf1nDUsjEgzl-10" value="Конфиденциальные данные" style="whiteSpace=wrap;html=1;rounded=1;arcSize=50;align=center;verticalAlign=middle;strokeWidth=1;autosize=1;spacing=4;treeFolding=1;treeMoving=1;newEdgeStyle={&quot;edgeStyle&quot;:&quot;entityRelationEdgeStyle&quot;,&quot;startArrow&quot;:&quot;none&quot;,&quot;endArrow&quot;:&quot;none&quot;,&quot;segment&quot;:10,&quot;curved&quot;:1,&quot;sourcePerimeterSpacing&quot;:0,&quot;targetPerimeterSpacing&quot;:0};labelBackgroundColor=none;fillColor=#B9E0A5;" parent="1" vertex="1">
          <mxGeometry x="160" y="570" width="182" height="44" as="geometry" />
        </mxCell>
        <mxCell id="ui9xmZxjVf1nDUsjEgzl-11" value="" style="edgeStyle=entityRelationEdgeStyle;startArrow=none;endArrow=none;segment=10;curved=1;sourcePerimeterSpacing=0;targetPerimeterSpacing=0;rounded=1;exitX=1;exitY=0.5;exitDx=0;exitDy=0;labelBackgroundColor=none;fontColor=default;" parent="1" source="ui9xmZxjVf1nDUsjEgzl-1" target="ui9xmZxjVf1nDUsjEgzl-10" edge="1">
          <mxGeometry relative="1" as="geometry">
            <mxPoint x="140" y="600" as="sourcePoint" />
          </mxGeometry>
        </mxCell>
        <mxCell id="ui9xmZxjVf1nDUsjEgzl-12" value="Секретные данные" style="whiteSpace=wrap;html=1;rounded=1;arcSize=50;align=center;verticalAlign=middle;strokeWidth=1;autosize=1;spacing=4;treeFolding=1;treeMoving=1;newEdgeStyle={&quot;edgeStyle&quot;:&quot;entityRelationEdgeStyle&quot;,&quot;startArrow&quot;:&quot;none&quot;,&quot;endArrow&quot;:&quot;none&quot;,&quot;segment&quot;:10,&quot;curved&quot;:1,&quot;sourcePerimeterSpacing&quot;:0,&quot;targetPerimeterSpacing&quot;:0};labelBackgroundColor=none;fillColor=#B9E0A5;" parent="1" vertex="1">
          <mxGeometry x="-222" y="107" width="182" height="44" as="geometry" />
        </mxCell>
        <mxCell id="ui9xmZxjVf1nDUsjEgzl-13" value="" style="edgeStyle=entityRelationEdgeStyle;startArrow=none;endArrow=none;segment=10;curved=1;sourcePerimeterSpacing=0;targetPerimeterSpacing=0;rounded=1;labelBackgroundColor=none;fontColor=default;" parent="1" source="ui9xmZxjVf1nDUsjEgzl-1" target="ui9xmZxjVf1nDUsjEgzl-12" edge="1">
          <mxGeometry relative="1" as="geometry">
            <mxPoint x="140" y="600" as="sourcePoint" />
          </mxGeometry>
        </mxCell>
        <mxCell id="CUiqJiFjoZOIeFZz4wZD-19" value="Данные объектов недвижимости" style="whiteSpace=wrap;html=1;rounded=1;arcSize=50;align=center;verticalAlign=middle;strokeWidth=1;autosize=1;spacing=4;treeFolding=1;treeMoving=1;newEdgeStyle={&quot;edgeStyle&quot;:&quot;entityRelationEdgeStyle&quot;,&quot;startArrow&quot;:&quot;none&quot;,&quot;endArrow&quot;:&quot;none&quot;,&quot;segment&quot;:10,&quot;curved&quot;:1,&quot;sourcePerimeterSpacing&quot;:0,&quot;targetPerimeterSpacing&quot;:0};labelBackgroundColor=none;fillColor=#FFE599;" parent="1" vertex="1">
          <mxGeometry x="420" y="110" width="182" height="44" as="geometry" />
        </mxCell>
        <mxCell id="CUiqJiFjoZOIeFZz4wZD-20" value="" style="edgeStyle=entityRelationEdgeStyle;startArrow=none;endArrow=none;segment=10;curved=1;sourcePerimeterSpacing=0;targetPerimeterSpacing=0;rounded=1;labelBackgroundColor=none;fontColor=default;" parent="1" source="ui9xmZxjVf1nDUsjEgzl-2" target="CUiqJiFjoZOIeFZz4wZD-19" edge="1">
          <mxGeometry relative="1" as="geometry">
            <mxPoint x="274" y="-131.5" as="sourcePoint" />
            <Array as="points">
              <mxPoint x="164" y="24.5" />
            </Array>
          </mxGeometry>
        </mxCell>
        <mxCell id="CUiqJiFjoZOIeFZz4wZD-21" value="Данные о сделках" style="whiteSpace=wrap;html=1;rounded=1;arcSize=50;align=center;verticalAlign=middle;strokeWidth=1;autosize=1;spacing=4;treeFolding=1;treeMoving=1;newEdgeStyle={&quot;edgeStyle&quot;:&quot;entityRelationEdgeStyle&quot;,&quot;startArrow&quot;:&quot;none&quot;,&quot;endArrow&quot;:&quot;none&quot;,&quot;segment&quot;:10,&quot;curved&quot;:1,&quot;sourcePerimeterSpacing&quot;:0,&quot;targetPerimeterSpacing&quot;:0};labelBackgroundColor=none;fillColor=#FFE599;" parent="1" vertex="1">
          <mxGeometry x="420" y="472" width="182" height="44" as="geometry" />
        </mxCell>
        <mxCell id="CUiqJiFjoZOIeFZz4wZD-22" value="" style="edgeStyle=entityRelationEdgeStyle;startArrow=none;endArrow=none;segment=10;curved=1;sourcePerimeterSpacing=0;targetPerimeterSpacing=0;rounded=1;labelBackgroundColor=none;fontColor=default;exitX=1;exitY=0.5;exitDx=0;exitDy=0;" parent="1" source="ui9xmZxjVf1nDUsjEgzl-10" target="CUiqJiFjoZOIeFZz4wZD-21" edge="1">
          <mxGeometry relative="1" as="geometry">
            <mxPoint x="480" y="899.5" as="sourcePoint" />
            <Array as="points">
              <mxPoint x="400" y="649.5" />
            </Array>
          </mxGeometry>
        </mxCell>
        <mxCell id="CUiqJiFjoZOIeFZz4wZD-23" value="Персональные данные клиентов и собственников" style="whiteSpace=wrap;html=1;rounded=1;arcSize=50;align=center;verticalAlign=middle;strokeWidth=1;autosize=1;spacing=4;treeFolding=1;treeMoving=1;newEdgeStyle={&quot;edgeStyle&quot;:&quot;entityRelationEdgeStyle&quot;,&quot;startArrow&quot;:&quot;none&quot;,&quot;endArrow&quot;:&quot;none&quot;,&quot;segment&quot;:10,&quot;curved&quot;:1,&quot;sourcePerimeterSpacing&quot;:0,&quot;targetPerimeterSpacing&quot;:0};labelBackgroundColor=none;fillColor=#FFE599;" parent="1" vertex="1">
          <mxGeometry x="420" y="652" width="182" height="44" as="geometry" />
        </mxCell>
        <mxCell id="CUiqJiFjoZOIeFZz4wZD-24" value="" style="edgeStyle=entityRelationEdgeStyle;startArrow=none;endArrow=none;segment=10;curved=1;sourcePerimeterSpacing=0;targetPerimeterSpacing=0;rounded=1;exitX=1;exitY=0.5;exitDx=0;exitDy=0;labelBackgroundColor=none;fontColor=default;" parent="1" source="ui9xmZxjVf1nDUsjEgzl-10" target="CUiqJiFjoZOIeFZz4wZD-23" edge="1">
          <mxGeometry relative="1" as="geometry">
            <mxPoint x="430" y="1029.5" as="sourcePoint" />
            <Array as="points">
              <mxPoint x="420" y="1059.5" />
              <mxPoint x="422" y="1031.5" />
            </Array>
          </mxGeometry>
        </mxCell>
        <mxCell id="CUiqJiFjoZOIeFZz4wZD-25" value="Данные услуг ЖКХ" style="whiteSpace=wrap;html=1;rounded=1;arcSize=50;align=center;verticalAlign=middle;strokeWidth=1;autosize=1;spacing=4;treeFolding=1;treeMoving=1;newEdgeStyle={&quot;edgeStyle&quot;:&quot;entityRelationEdgeStyle&quot;,&quot;startArrow&quot;:&quot;none&quot;,&quot;endArrow&quot;:&quot;none&quot;,&quot;segment&quot;:10,&quot;curved&quot;:1,&quot;sourcePerimeterSpacing&quot;:0,&quot;targetPerimeterSpacing&quot;:0};labelBackgroundColor=none;fillColor=#FFE599;" parent="1" vertex="1">
          <mxGeometry x="-471" y="733" width="182" height="44" as="geometry" />
        </mxCell>
        <mxCell id="CUiqJiFjoZOIeFZz4wZD-26" value="" style="edgeStyle=entityRelationEdgeStyle;startArrow=none;endArrow=none;segment=10;curved=1;sourcePerimeterSpacing=0;targetPerimeterSpacing=0;rounded=1;labelBackgroundColor=none;fontColor=default;" parent="1" source="ui9xmZxjVf1nDUsjEgzl-8" target="CUiqJiFjoZOIeFZz4wZD-25" edge="1">
          <mxGeometry relative="1" as="geometry">
            <mxPoint x="-876" y="350" as="sourcePoint" />
            <mxPoint x="-774" y="320" as="targetPoint" />
            <Array as="points">
              <mxPoint x="-884" y="-72" />
            </Array>
          </mxGeometry>
        </mxCell>
        <mxCell id="CUiqJiFjoZOIeFZz4wZD-27" value="Платежные данные" style="whiteSpace=wrap;html=1;rounded=1;arcSize=50;align=center;verticalAlign=middle;strokeWidth=1;autosize=1;spacing=4;treeFolding=1;treeMoving=1;newEdgeStyle={&quot;edgeStyle&quot;:&quot;entityRelationEdgeStyle&quot;,&quot;startArrow&quot;:&quot;none&quot;,&quot;endArrow&quot;:&quot;none&quot;,&quot;segment&quot;:10,&quot;curved&quot;:1,&quot;sourcePerimeterSpacing&quot;:0,&quot;targetPerimeterSpacing&quot;:0};labelBackgroundColor=none;fillColor=#FFE599;" parent="1" vertex="1">
          <mxGeometry x="-471" y="107" width="182" height="44" as="geometry" />
        </mxCell>
        <mxCell id="CUiqJiFjoZOIeFZz4wZD-28" value="" style="edgeStyle=entityRelationEdgeStyle;startArrow=none;endArrow=none;segment=10;curved=1;sourcePerimeterSpacing=0;targetPerimeterSpacing=0;rounded=1;labelBackgroundColor=none;fontColor=default;" parent="1" source="ui9xmZxjVf1nDUsjEgzl-12" target="CUiqJiFjoZOIeFZz4wZD-27" edge="1">
          <mxGeometry relative="1" as="geometry">
            <mxPoint x="-106" y="-28.5" as="sourcePoint" />
            <Array as="points">
              <mxPoint x="-94" y="-40.5" />
              <mxPoint x="-92" y="-68.5" />
            </Array>
            <mxPoint x="-4" y="41.5" as="targetPoint" />
          </mxGeometry>
        </mxCell>
        <mxCell id="CUiqJiFjoZOIeFZz4wZD-29" value="Данные BI отчетов" style="whiteSpace=wrap;html=1;rounded=1;arcSize=50;align=center;verticalAlign=middle;strokeWidth=1;autosize=1;spacing=4;treeFolding=1;treeMoving=1;newEdgeStyle={&quot;edgeStyle&quot;:&quot;entityRelationEdgeStyle&quot;,&quot;startArrow&quot;:&quot;none&quot;,&quot;endArrow&quot;:&quot;none&quot;,&quot;segment&quot;:10,&quot;curved&quot;:1,&quot;sourcePerimeterSpacing&quot;:0,&quot;targetPerimeterSpacing&quot;:0};labelBackgroundColor=none;fillColor=#FFE599;" parent="1" vertex="1">
          <mxGeometry x="-471" y="590" width="182" height="44" as="geometry" />
        </mxCell>
        <mxCell id="CUiqJiFjoZOIeFZz4wZD-30" value="" style="edgeStyle=entityRelationEdgeStyle;startArrow=none;endArrow=none;segment=10;curved=1;sourcePerimeterSpacing=0;targetPerimeterSpacing=0;rounded=1;labelBackgroundColor=none;fontColor=default;exitX=0;exitY=0.5;exitDx=0;exitDy=0;" parent="1" source="ui9xmZxjVf1nDUsjEgzl-8" target="CUiqJiFjoZOIeFZz4wZD-29" edge="1">
          <mxGeometry relative="1" as="geometry">
            <mxPoint x="-898" y="322" as="sourcePoint" />
            <mxPoint x="-796" y="322" as="targetPoint" />
            <Array as="points">
              <mxPoint x="-916" y="300" />
              <mxPoint x="-874" y="-62" />
            </Array>
          </mxGeometry>
        </mxCell>
        <mxCell id="CUiqJiFjoZOIeFZz4wZD-31" value="Данные бух учёта" style="whiteSpace=wrap;html=1;rounded=1;arcSize=50;align=center;verticalAlign=middle;strokeWidth=1;autosize=1;spacing=4;treeFolding=1;treeMoving=1;newEdgeStyle={&quot;edgeStyle&quot;:&quot;entityRelationEdgeStyle&quot;,&quot;startArrow&quot;:&quot;none&quot;,&quot;endArrow&quot;:&quot;none&quot;,&quot;segment&quot;:10,&quot;curved&quot;:1,&quot;sourcePerimeterSpacing&quot;:0,&quot;targetPerimeterSpacing&quot;:0};labelBackgroundColor=none;fillColor=#FFE599;" parent="1" vertex="1">
          <mxGeometry x="-471" y="312.5" width="182" height="44" as="geometry" />
        </mxCell>
        <mxCell id="CUiqJiFjoZOIeFZz4wZD-32" value="" style="edgeStyle=entityRelationEdgeStyle;startArrow=none;endArrow=none;segment=10;curved=1;sourcePerimeterSpacing=0;targetPerimeterSpacing=0;rounded=1;labelBackgroundColor=none;fontColor=default;exitX=0;exitY=0.5;exitDx=0;exitDy=0;" parent="1" source="ui9xmZxjVf1nDUsjEgzl-8" target="CUiqJiFjoZOIeFZz4wZD-31" edge="1">
          <mxGeometry relative="1" as="geometry">
            <mxPoint x="-906" y="264" as="sourcePoint" />
            <mxPoint x="-804" y="254" as="targetPoint" />
            <Array as="points">
              <mxPoint x="-914" y="252" />
              <mxPoint x="-872" y="-110" />
            </Array>
          </mxGeometry>
        </mxCell>
        <mxCell id="CUiqJiFjoZOIeFZz4wZD-33" value="Потеря данных" style="whiteSpace=wrap;html=1;rounded=1;arcSize=50;align=center;verticalAlign=middle;strokeWidth=1;autosize=1;spacing=4;treeFolding=1;treeMoving=1;newEdgeStyle={&quot;edgeStyle&quot;:&quot;entityRelationEdgeStyle&quot;,&quot;startArrow&quot;:&quot;none&quot;,&quot;endArrow&quot;:&quot;none&quot;,&quot;segment&quot;:10,&quot;curved&quot;:1,&quot;sourcePerimeterSpacing&quot;:0,&quot;targetPerimeterSpacing&quot;:0};labelBackgroundColor=none;fillColor=#f5f5f5;fontColor=#333333;strokeColor=#666666;" parent="1" vertex="1">
          <mxGeometry x="710" y="81.5" width="182" height="44" as="geometry" />
        </mxCell>
        <mxCell id="CUiqJiFjoZOIeFZz4wZD-34" value="" style="edgeStyle=entityRelationEdgeStyle;startArrow=none;endArrow=none;segment=10;curved=1;sourcePerimeterSpacing=0;targetPerimeterSpacing=0;rounded=1;labelBackgroundColor=none;fontColor=default;" parent="1" source="CUiqJiFjoZOIeFZz4wZD-19" target="CUiqJiFjoZOIeFZz4wZD-33" edge="1">
          <mxGeometry relative="1" as="geometry">
            <mxPoint x="1565" y="-248" as="sourcePoint" />
            <Array as="points">
              <mxPoint x="1587" y="-76" />
            </Array>
          </mxGeometry>
        </mxCell>
        <mxCell id="CUiqJiFjoZOIeFZz4wZD-35" value="Искажение данных" style="whiteSpace=wrap;html=1;rounded=1;arcSize=50;align=center;verticalAlign=middle;strokeWidth=1;autosize=1;spacing=4;treeFolding=1;treeMoving=1;newEdgeStyle={&quot;edgeStyle&quot;:&quot;entityRelationEdgeStyle&quot;,&quot;startArrow&quot;:&quot;none&quot;,&quot;endArrow&quot;:&quot;none&quot;,&quot;segment&quot;:10,&quot;curved&quot;:1,&quot;sourcePerimeterSpacing&quot;:0,&quot;targetPerimeterSpacing&quot;:0};labelBackgroundColor=none;fillColor=#f5f5f5;fontColor=#333333;strokeColor=#666666;" parent="1" vertex="1">
          <mxGeometry x="710" y="133.5" width="182" height="44" as="geometry" />
        </mxCell>
        <mxCell id="CUiqJiFjoZOIeFZz4wZD-36" value="" style="edgeStyle=entityRelationEdgeStyle;startArrow=none;endArrow=none;segment=10;curved=1;sourcePerimeterSpacing=0;targetPerimeterSpacing=0;rounded=1;labelBackgroundColor=none;fontColor=default;" parent="1" source="CUiqJiFjoZOIeFZz4wZD-19" target="CUiqJiFjoZOIeFZz4wZD-35" edge="1">
          <mxGeometry relative="1" as="geometry">
            <mxPoint x="1613" y="-108" as="sourcePoint" />
            <Array as="points">
              <mxPoint x="1635" y="64" />
            </Array>
          </mxGeometry>
        </mxCell>
        <mxCell id="CUiqJiFjoZOIeFZz4wZD-37" value="Потеря данных" style="whiteSpace=wrap;html=1;rounded=1;arcSize=50;align=center;verticalAlign=middle;strokeWidth=1;autosize=1;spacing=4;treeFolding=1;treeMoving=1;newEdgeStyle={&quot;edgeStyle&quot;:&quot;entityRelationEdgeStyle&quot;,&quot;startArrow&quot;:&quot;none&quot;,&quot;endArrow&quot;:&quot;none&quot;,&quot;segment&quot;:10,&quot;curved&quot;:1,&quot;sourcePerimeterSpacing&quot;:0,&quot;targetPerimeterSpacing&quot;:0};labelBackgroundColor=none;fillColor=#f5f5f5;fontColor=#333333;strokeColor=#666666;" parent="1" vertex="1">
          <mxGeometry x="-821" y="270" width="182" height="44" as="geometry" />
        </mxCell>
        <mxCell id="CUiqJiFjoZOIeFZz4wZD-38" value="" style="edgeStyle=entityRelationEdgeStyle;startArrow=none;endArrow=none;segment=10;curved=1;sourcePerimeterSpacing=0;targetPerimeterSpacing=0;rounded=1;labelBackgroundColor=none;fontColor=default;" parent="1" source="CUiqJiFjoZOIeFZz4wZD-31" target="CUiqJiFjoZOIeFZz4wZD-37" edge="1">
          <mxGeometry relative="1" as="geometry">
            <mxPoint x="-595" y="62.5" as="sourcePoint" />
            <Array as="points">
              <mxPoint x="-573" y="234.5" />
            </Array>
          </mxGeometry>
        </mxCell>
        <mxCell id="CUiqJiFjoZOIeFZz4wZD-39" value="Искажение данных" style="whiteSpace=wrap;html=1;rounded=1;arcSize=50;align=center;verticalAlign=middle;strokeWidth=1;autosize=1;spacing=4;treeFolding=1;treeMoving=1;newEdgeStyle={&quot;edgeStyle&quot;:&quot;entityRelationEdgeStyle&quot;,&quot;startArrow&quot;:&quot;none&quot;,&quot;endArrow&quot;:&quot;none&quot;,&quot;segment&quot;:10,&quot;curved&quot;:1,&quot;sourcePerimeterSpacing&quot;:0,&quot;targetPerimeterSpacing&quot;:0};labelBackgroundColor=none;fillColor=#f5f5f5;fontColor=#333333;strokeColor=#666666;" parent="1" vertex="1">
          <mxGeometry x="-821" y="322" width="182" height="44" as="geometry" />
        </mxCell>
        <mxCell id="CUiqJiFjoZOIeFZz4wZD-40" value="" style="edgeStyle=entityRelationEdgeStyle;startArrow=none;endArrow=none;segment=10;curved=1;sourcePerimeterSpacing=0;targetPerimeterSpacing=0;rounded=1;labelBackgroundColor=none;fontColor=default;" parent="1" source="CUiqJiFjoZOIeFZz4wZD-31" target="CUiqJiFjoZOIeFZz4wZD-39" edge="1">
          <mxGeometry relative="1" as="geometry">
            <mxPoint x="-595" y="62.5" as="sourcePoint" />
            <Array as="points">
              <mxPoint x="-525" y="374.5" />
            </Array>
          </mxGeometry>
        </mxCell>
        <mxCell id="CUiqJiFjoZOIeFZz4wZD-41" value="Обесценивание данных" style="whiteSpace=wrap;html=1;rounded=1;arcSize=50;align=center;verticalAlign=middle;strokeWidth=1;autosize=1;spacing=4;treeFolding=1;treeMoving=1;newEdgeStyle={&quot;edgeStyle&quot;:&quot;entityRelationEdgeStyle&quot;,&quot;startArrow&quot;:&quot;none&quot;,&quot;endArrow&quot;:&quot;none&quot;,&quot;segment&quot;:10,&quot;curved&quot;:1,&quot;sourcePerimeterSpacing&quot;:0,&quot;targetPerimeterSpacing&quot;:0};labelBackgroundColor=none;fillColor=#f5f5f5;fontColor=#333333;strokeColor=#666666;" parent="1" vertex="1">
          <mxGeometry x="-821" y="377" width="182" height="44" as="geometry" />
        </mxCell>
        <mxCell id="CUiqJiFjoZOIeFZz4wZD-42" value="" style="edgeStyle=entityRelationEdgeStyle;startArrow=none;endArrow=none;segment=10;curved=1;sourcePerimeterSpacing=0;targetPerimeterSpacing=0;rounded=1;labelBackgroundColor=none;fontColor=default;" parent="1" source="CUiqJiFjoZOIeFZz4wZD-31" target="CUiqJiFjoZOIeFZz4wZD-41" edge="1">
          <mxGeometry relative="1" as="geometry">
            <mxPoint x="-585" y="99" as="sourcePoint" />
            <Array as="points">
              <mxPoint x="-515" y="384.5" />
            </Array>
            <mxPoint x="-437" y="24" as="targetPoint" />
          </mxGeometry>
        </mxCell>
        <mxCell id="CUiqJiFjoZOIeFZz4wZD-43" value="Утечка данных" style="whiteSpace=wrap;html=1;rounded=1;arcSize=50;align=center;verticalAlign=middle;strokeWidth=1;autosize=1;spacing=4;treeFolding=1;treeMoving=1;newEdgeStyle={&quot;edgeStyle&quot;:&quot;entityRelationEdgeStyle&quot;,&quot;startArrow&quot;:&quot;none&quot;,&quot;endArrow&quot;:&quot;none&quot;,&quot;segment&quot;:10,&quot;curved&quot;:1,&quot;sourcePerimeterSpacing&quot;:0,&quot;targetPerimeterSpacing&quot;:0};labelBackgroundColor=none;fillColor=#f5f5f5;fontColor=#333333;strokeColor=#666666;" parent="1" vertex="1">
          <mxGeometry x="-821" y="220" width="182" height="44" as="geometry" />
        </mxCell>
        <mxCell id="CUiqJiFjoZOIeFZz4wZD-44" value="" style="edgeStyle=entityRelationEdgeStyle;startArrow=none;endArrow=none;segment=10;curved=1;sourcePerimeterSpacing=0;targetPerimeterSpacing=0;rounded=1;labelBackgroundColor=none;fontColor=default;" parent="1" source="CUiqJiFjoZOIeFZz4wZD-31" target="CUiqJiFjoZOIeFZz4wZD-43" edge="1">
          <mxGeometry relative="1" as="geometry">
            <mxPoint x="-617" y="47" as="sourcePoint" />
            <Array as="points">
              <mxPoint x="-595" y="192.5" />
            </Array>
            <mxPoint x="-469" y="-80" as="targetPoint" />
          </mxGeometry>
        </mxCell>
        <mxCell id="CUiqJiFjoZOIeFZz4wZD-45" value="Потеря данных" style="whiteSpace=wrap;html=1;rounded=1;arcSize=50;align=center;verticalAlign=middle;strokeWidth=1;autosize=1;spacing=4;treeFolding=1;treeMoving=1;newEdgeStyle={&quot;edgeStyle&quot;:&quot;entityRelationEdgeStyle&quot;,&quot;startArrow&quot;:&quot;none&quot;,&quot;endArrow&quot;:&quot;none&quot;,&quot;segment&quot;:10,&quot;curved&quot;:1,&quot;sourcePerimeterSpacing&quot;:0,&quot;targetPerimeterSpacing&quot;:0};labelBackgroundColor=none;fillColor=#f5f5f5;fontColor=#333333;strokeColor=#666666;" parent="1" vertex="1">
          <mxGeometry x="-821" y="518" width="182" height="44" as="geometry" />
        </mxCell>
        <mxCell id="CUiqJiFjoZOIeFZz4wZD-46" value="" style="edgeStyle=entityRelationEdgeStyle;startArrow=none;endArrow=none;segment=10;curved=1;sourcePerimeterSpacing=0;targetPerimeterSpacing=0;rounded=1;labelBackgroundColor=none;fontColor=default;" parent="1" source="CUiqJiFjoZOIeFZz4wZD-29" target="CUiqJiFjoZOIeFZz4wZD-45" edge="1">
          <mxGeometry relative="1" as="geometry">
            <mxPoint x="-745" y="89.5" as="sourcePoint" />
            <Array as="points">
              <mxPoint x="-745" y="89.5" />
              <mxPoint x="-573" y="452.5" />
            </Array>
          </mxGeometry>
        </mxCell>
        <mxCell id="CUiqJiFjoZOIeFZz4wZD-47" value="Искажение данных" style="whiteSpace=wrap;html=1;rounded=1;arcSize=50;align=center;verticalAlign=middle;strokeWidth=1;autosize=1;spacing=4;treeFolding=1;treeMoving=1;newEdgeStyle={&quot;edgeStyle&quot;:&quot;entityRelationEdgeStyle&quot;,&quot;startArrow&quot;:&quot;none&quot;,&quot;endArrow&quot;:&quot;none&quot;,&quot;segment&quot;:10,&quot;curved&quot;:1,&quot;sourcePerimeterSpacing&quot;:0,&quot;targetPerimeterSpacing&quot;:0};labelBackgroundColor=none;fillColor=#f5f5f5;fontColor=#333333;strokeColor=#666666;" parent="1" vertex="1">
          <mxGeometry x="-821" y="570" width="182" height="44" as="geometry" />
        </mxCell>
        <mxCell id="CUiqJiFjoZOIeFZz4wZD-48" value="" style="edgeStyle=entityRelationEdgeStyle;startArrow=none;endArrow=none;segment=10;curved=1;sourcePerimeterSpacing=0;targetPerimeterSpacing=0;rounded=1;labelBackgroundColor=none;fontColor=default;" parent="1" source="CUiqJiFjoZOIeFZz4wZD-29" target="CUiqJiFjoZOIeFZz4wZD-47" edge="1">
          <mxGeometry relative="1" as="geometry">
            <mxPoint x="-745" y="89.5" as="sourcePoint" />
            <Array as="points">
              <mxPoint x="-525" y="592.5" />
            </Array>
          </mxGeometry>
        </mxCell>
        <mxCell id="CUiqJiFjoZOIeFZz4wZD-49" value="Обесценивание данных" style="whiteSpace=wrap;html=1;rounded=1;arcSize=50;align=center;verticalAlign=middle;strokeWidth=1;autosize=1;spacing=4;treeFolding=1;treeMoving=1;newEdgeStyle={&quot;edgeStyle&quot;:&quot;entityRelationEdgeStyle&quot;,&quot;startArrow&quot;:&quot;none&quot;,&quot;endArrow&quot;:&quot;none&quot;,&quot;segment&quot;:10,&quot;curved&quot;:1,&quot;sourcePerimeterSpacing&quot;:0,&quot;targetPerimeterSpacing&quot;:0};labelBackgroundColor=none;fillColor=#f5f5f5;fontColor=#333333;strokeColor=#666666;" parent="1" vertex="1">
          <mxGeometry x="-821" y="625" width="182" height="44" as="geometry" />
        </mxCell>
        <mxCell id="CUiqJiFjoZOIeFZz4wZD-50" value="" style="edgeStyle=entityRelationEdgeStyle;startArrow=none;endArrow=none;segment=10;curved=1;sourcePerimeterSpacing=0;targetPerimeterSpacing=0;rounded=1;labelBackgroundColor=none;fontColor=default;" parent="1" source="CUiqJiFjoZOIeFZz4wZD-29" target="CUiqJiFjoZOIeFZz4wZD-49" edge="1">
          <mxGeometry relative="1" as="geometry">
            <mxPoint x="-745" y="89.5" as="sourcePoint" />
            <Array as="points">
              <mxPoint x="-515" y="602.5" />
            </Array>
            <mxPoint x="-437" y="242" as="targetPoint" />
          </mxGeometry>
        </mxCell>
        <mxCell id="CUiqJiFjoZOIeFZz4wZD-51" value="Утечка данных" style="whiteSpace=wrap;html=1;rounded=1;arcSize=50;align=center;verticalAlign=middle;strokeWidth=1;autosize=1;spacing=4;treeFolding=1;treeMoving=1;newEdgeStyle={&quot;edgeStyle&quot;:&quot;entityRelationEdgeStyle&quot;,&quot;startArrow&quot;:&quot;none&quot;,&quot;endArrow&quot;:&quot;none&quot;,&quot;segment&quot;:10,&quot;curved&quot;:1,&quot;sourcePerimeterSpacing&quot;:0,&quot;targetPerimeterSpacing&quot;:0};labelBackgroundColor=none;fillColor=#f5f5f5;fontColor=#333333;strokeColor=#666666;" parent="1" vertex="1">
          <mxGeometry x="-821" y="468" width="182" height="44" as="geometry" />
        </mxCell>
        <mxCell id="CUiqJiFjoZOIeFZz4wZD-52" value="" style="edgeStyle=entityRelationEdgeStyle;startArrow=none;endArrow=none;segment=10;curved=1;sourcePerimeterSpacing=0;targetPerimeterSpacing=0;rounded=1;labelBackgroundColor=none;fontColor=default;" parent="1" source="CUiqJiFjoZOIeFZz4wZD-29" target="CUiqJiFjoZOIeFZz4wZD-51" edge="1">
          <mxGeometry relative="1" as="geometry">
            <mxPoint x="-743" y="91" as="sourcePoint" />
            <Array as="points">
              <mxPoint x="-595" y="410.5" />
            </Array>
            <mxPoint x="-469" y="138" as="targetPoint" />
          </mxGeometry>
        </mxCell>
        <mxCell id="CUiqJiFjoZOIeFZz4wZD-55" value="Искажение данных" style="whiteSpace=wrap;html=1;rounded=1;arcSize=50;align=center;verticalAlign=middle;strokeWidth=1;autosize=1;spacing=4;treeFolding=1;treeMoving=1;newEdgeStyle={&quot;edgeStyle&quot;:&quot;entityRelationEdgeStyle&quot;,&quot;startArrow&quot;:&quot;none&quot;,&quot;endArrow&quot;:&quot;none&quot;,&quot;segment&quot;:10,&quot;curved&quot;:1,&quot;sourcePerimeterSpacing&quot;:0,&quot;targetPerimeterSpacing&quot;:0};labelBackgroundColor=none;fillColor=#f5f5f5;fontColor=#333333;strokeColor=#666666;" parent="1" vertex="1">
          <mxGeometry x="-821" y="715.5" width="182" height="44" as="geometry" />
        </mxCell>
        <mxCell id="CUiqJiFjoZOIeFZz4wZD-56" value="" style="edgeStyle=entityRelationEdgeStyle;startArrow=none;endArrow=none;segment=10;curved=1;sourcePerimeterSpacing=0;targetPerimeterSpacing=0;rounded=1;labelBackgroundColor=none;fontColor=default;" parent="1" source="CUiqJiFjoZOIeFZz4wZD-25" target="CUiqJiFjoZOIeFZz4wZD-55" edge="1">
          <mxGeometry relative="1" as="geometry">
            <mxPoint x="-397" y="325.5" as="sourcePoint" />
            <Array as="points">
              <mxPoint x="-327" y="808" />
            </Array>
          </mxGeometry>
        </mxCell>
        <mxCell id="CUiqJiFjoZOIeFZz4wZD-57" value="Обесценивание данных" style="whiteSpace=wrap;html=1;rounded=1;arcSize=50;align=center;verticalAlign=middle;strokeWidth=1;autosize=1;spacing=4;treeFolding=1;treeMoving=1;newEdgeStyle={&quot;edgeStyle&quot;:&quot;entityRelationEdgeStyle&quot;,&quot;startArrow&quot;:&quot;none&quot;,&quot;endArrow&quot;:&quot;none&quot;,&quot;segment&quot;:10,&quot;curved&quot;:1,&quot;sourcePerimeterSpacing&quot;:0,&quot;targetPerimeterSpacing&quot;:0};labelBackgroundColor=none;fillColor=#f5f5f5;fontColor=#333333;strokeColor=#666666;" parent="1" vertex="1">
          <mxGeometry x="-821" y="770.5" width="182" height="44" as="geometry" />
        </mxCell>
        <mxCell id="CUiqJiFjoZOIeFZz4wZD-58" value="" style="edgeStyle=entityRelationEdgeStyle;startArrow=none;endArrow=none;segment=10;curved=1;sourcePerimeterSpacing=0;targetPerimeterSpacing=0;rounded=1;labelBackgroundColor=none;fontColor=default;" parent="1" source="CUiqJiFjoZOIeFZz4wZD-25" target="CUiqJiFjoZOIeFZz4wZD-57" edge="1">
          <mxGeometry relative="1" as="geometry">
            <mxPoint x="-397" y="325.5" as="sourcePoint" />
            <Array as="points">
              <mxPoint x="-597" y="168" />
              <mxPoint x="-317" y="818" />
            </Array>
            <mxPoint x="-239" y="457.5" as="targetPoint" />
          </mxGeometry>
        </mxCell>
        <mxCell id="66qhIik_lh2cy4dN3r72-73" style="edgeStyle=entityRelationEdgeStyle;rounded=0;orthogonalLoop=1;jettySize=auto;html=1;startArrow=none;endArrow=none;segment=10;curved=1;sourcePerimeterSpacing=0;targetPerimeterSpacing=0;exitX=1;exitY=0.5;exitDx=0;exitDy=0;" edge="1" parent="1" source="CUiqJiFjoZOIeFZz4wZD-63" target="66qhIik_lh2cy4dN3r72-69">
          <mxGeometry relative="1" as="geometry" />
        </mxCell>
        <mxCell id="CUiqJiFjoZOIeFZz4wZD-63" value="Утечка данных" style="whiteSpace=wrap;html=1;rounded=1;arcSize=50;align=center;verticalAlign=middle;strokeWidth=1;autosize=1;spacing=4;treeFolding=1;treeMoving=1;newEdgeStyle={&quot;edgeStyle&quot;:&quot;entityRelationEdgeStyle&quot;,&quot;startArrow&quot;:&quot;none&quot;,&quot;endArrow&quot;:&quot;none&quot;,&quot;segment&quot;:10,&quot;curved&quot;:1,&quot;sourcePerimeterSpacing&quot;:0,&quot;targetPerimeterSpacing&quot;:0};labelBackgroundColor=none;fillColor=#f5f5f5;fontColor=#333333;strokeColor=#666666;" parent="1" vertex="1">
          <mxGeometry x="710" y="450" width="182" height="44" as="geometry" />
        </mxCell>
        <mxCell id="CUiqJiFjoZOIeFZz4wZD-64" value="" style="edgeStyle=entityRelationEdgeStyle;startArrow=none;endArrow=none;segment=10;curved=1;sourcePerimeterSpacing=0;targetPerimeterSpacing=0;rounded=1;labelBackgroundColor=none;fontColor=default;entryX=0;entryY=0.5;entryDx=0;entryDy=0;exitX=1;exitY=0.5;exitDx=0;exitDy=0;" parent="1" source="CUiqJiFjoZOIeFZz4wZD-21" target="CUiqJiFjoZOIeFZz4wZD-63" edge="1">
          <mxGeometry relative="1" as="geometry">
            <mxPoint x="722" y="789" as="sourcePoint" />
            <Array as="points">
              <mxPoint x="720" y="832" />
              <mxPoint x="720" y="793" />
              <mxPoint x="1000" y="1443" />
            </Array>
            <mxPoint x="870" y="782" as="targetPoint" />
          </mxGeometry>
        </mxCell>
        <mxCell id="CUiqJiFjoZOIeFZz4wZD-66" value="" style="edgeStyle=entityRelationEdgeStyle;startArrow=none;endArrow=none;segment=10;curved=1;sourcePerimeterSpacing=0;targetPerimeterSpacing=0;rounded=1;labelBackgroundColor=none;fontColor=default;entryX=0;entryY=0.5;entryDx=0;entryDy=0;exitX=1;exitY=0.5;exitDx=0;exitDy=0;" parent="1" source="CUiqJiFjoZOIeFZz4wZD-21" target="CUiqJiFjoZOIeFZz4wZD-62" edge="1">
          <mxGeometry relative="1" as="geometry">
            <mxPoint x="722" y="837" as="sourcePoint" />
            <Array as="points">
              <mxPoint x="740" y="852" />
              <mxPoint x="740" y="813" />
              <mxPoint x="1020" y="1463" />
            </Array>
            <mxPoint x="880" y="814" as="targetPoint" />
          </mxGeometry>
        </mxCell>
        <mxCell id="66qhIik_lh2cy4dN3r72-77" style="edgeStyle=entityRelationEdgeStyle;rounded=0;orthogonalLoop=1;jettySize=auto;html=1;startArrow=none;endArrow=none;segment=10;curved=1;sourcePerimeterSpacing=0;targetPerimeterSpacing=0;exitX=1;exitY=0.5;exitDx=0;exitDy=0;" edge="1" parent="1" source="CUiqJiFjoZOIeFZz4wZD-68" target="66qhIik_lh2cy4dN3r72-75">
          <mxGeometry relative="1" as="geometry" />
        </mxCell>
        <mxCell id="CUiqJiFjoZOIeFZz4wZD-68" value="Искажение данных" style="whiteSpace=wrap;html=1;rounded=1;arcSize=50;align=center;verticalAlign=middle;strokeWidth=1;autosize=1;spacing=4;treeFolding=1;treeMoving=1;newEdgeStyle={&quot;edgeStyle&quot;:&quot;entityRelationEdgeStyle&quot;,&quot;startArrow&quot;:&quot;none&quot;,&quot;endArrow&quot;:&quot;none&quot;,&quot;segment&quot;:10,&quot;curved&quot;:1,&quot;sourcePerimeterSpacing&quot;:0,&quot;targetPerimeterSpacing&quot;:0};labelBackgroundColor=none;fillColor=#f5f5f5;fontColor=#333333;strokeColor=#666666;" parent="1" vertex="1">
          <mxGeometry x="710" y="708.5" width="182" height="44" as="geometry" />
        </mxCell>
        <mxCell id="66qhIik_lh2cy4dN3r72-76" style="edgeStyle=entityRelationEdgeStyle;rounded=0;orthogonalLoop=1;jettySize=auto;html=1;startArrow=none;endArrow=none;segment=10;curved=1;sourcePerimeterSpacing=0;targetPerimeterSpacing=0;exitX=1;exitY=0.5;exitDx=0;exitDy=0;entryX=0;entryY=0.5;entryDx=0;entryDy=0;" edge="1" parent="1" source="CUiqJiFjoZOIeFZz4wZD-69" target="66qhIik_lh2cy4dN3r72-75">
          <mxGeometry relative="1" as="geometry" />
        </mxCell>
        <mxCell id="CUiqJiFjoZOIeFZz4wZD-69" value="Утечка данных" style="whiteSpace=wrap;html=1;rounded=1;arcSize=50;align=center;verticalAlign=middle;strokeWidth=1;autosize=1;spacing=4;treeFolding=1;treeMoving=1;newEdgeStyle={&quot;edgeStyle&quot;:&quot;entityRelationEdgeStyle&quot;,&quot;startArrow&quot;:&quot;none&quot;,&quot;endArrow&quot;:&quot;none&quot;,&quot;segment&quot;:10,&quot;curved&quot;:1,&quot;sourcePerimeterSpacing&quot;:0,&quot;targetPerimeterSpacing&quot;:0};labelBackgroundColor=none;fillColor=#f5f5f5;fontColor=#333333;strokeColor=#666666;" parent="1" vertex="1">
          <mxGeometry x="710" y="656.5" width="182" height="44" as="geometry" />
        </mxCell>
        <mxCell id="CUiqJiFjoZOIeFZz4wZD-70" value="" style="edgeStyle=entityRelationEdgeStyle;startArrow=none;endArrow=none;segment=10;curved=1;sourcePerimeterSpacing=0;targetPerimeterSpacing=0;rounded=1;labelBackgroundColor=none;fontColor=default;entryX=0;entryY=0.5;entryDx=0;entryDy=0;exitX=1;exitY=0.5;exitDx=0;exitDy=0;" parent="1" source="CUiqJiFjoZOIeFZz4wZD-23" target="CUiqJiFjoZOIeFZz4wZD-69" edge="1">
          <mxGeometry relative="1" as="geometry">
            <mxPoint x="712" y="988.5" as="sourcePoint" />
            <Array as="points">
              <mxPoint x="720" y="993.5" />
              <mxPoint x="720" y="954.5" />
              <mxPoint x="1000" y="1604.5" />
            </Array>
            <mxPoint x="870" y="943.5" as="targetPoint" />
          </mxGeometry>
        </mxCell>
        <mxCell id="CUiqJiFjoZOIeFZz4wZD-72" value="" style="edgeStyle=entityRelationEdgeStyle;startArrow=none;endArrow=none;segment=10;curved=1;sourcePerimeterSpacing=0;targetPerimeterSpacing=0;rounded=1;labelBackgroundColor=none;fontColor=default;entryX=0;entryY=0.5;entryDx=0;entryDy=0;exitX=1;exitY=0.5;exitDx=0;exitDy=0;" parent="1" source="CUiqJiFjoZOIeFZz4wZD-23" target="CUiqJiFjoZOIeFZz4wZD-68" edge="1">
          <mxGeometry relative="1" as="geometry">
            <mxPoint x="712" y="988.5" as="sourcePoint" />
            <Array as="points">
              <mxPoint x="740" y="1013.5" />
              <mxPoint x="740" y="974.5" />
              <mxPoint x="1020" y="1624.5" />
            </Array>
            <mxPoint x="880" y="975.5" as="targetPoint" />
          </mxGeometry>
        </mxCell>
        <mxCell id="66qhIik_lh2cy4dN3r72-80" style="edgeStyle=entityRelationEdgeStyle;rounded=0;orthogonalLoop=1;jettySize=auto;html=1;startArrow=none;endArrow=none;segment=10;curved=1;sourcePerimeterSpacing=0;targetPerimeterSpacing=0;" edge="1" parent="1" source="CUiqJiFjoZOIeFZz4wZD-74" target="66qhIik_lh2cy4dN3r72-78">
          <mxGeometry relative="1" as="geometry">
            <mxPoint x="-1340" y="-283" as="targetPoint" />
          </mxGeometry>
        </mxCell>
        <mxCell id="CUiqJiFjoZOIeFZz4wZD-74" value="Искажение данных" style="whiteSpace=wrap;html=1;rounded=1;arcSize=50;align=center;verticalAlign=middle;strokeWidth=1;autosize=1;spacing=4;treeFolding=1;treeMoving=1;newEdgeStyle={&quot;edgeStyle&quot;:&quot;entityRelationEdgeStyle&quot;,&quot;startArrow&quot;:&quot;none&quot;,&quot;endArrow&quot;:&quot;none&quot;,&quot;segment&quot;:10,&quot;curved&quot;:1,&quot;sourcePerimeterSpacing&quot;:0,&quot;targetPerimeterSpacing&quot;:0};labelBackgroundColor=none;fillColor=#f5f5f5;fontColor=#333333;strokeColor=#666666;" parent="1" vertex="1">
          <mxGeometry x="-821" y="133.5" width="182" height="44" as="geometry" />
        </mxCell>
        <mxCell id="66qhIik_lh2cy4dN3r72-79" style="edgeStyle=entityRelationEdgeStyle;rounded=0;orthogonalLoop=1;jettySize=auto;html=1;startArrow=none;endArrow=none;segment=10;curved=1;sourcePerimeterSpacing=0;targetPerimeterSpacing=0;" edge="1" parent="1" source="CUiqJiFjoZOIeFZz4wZD-75" target="66qhIik_lh2cy4dN3r72-78">
          <mxGeometry relative="1" as="geometry" />
        </mxCell>
        <mxCell id="CUiqJiFjoZOIeFZz4wZD-75" value="Утечка данных" style="whiteSpace=wrap;html=1;rounded=1;arcSize=50;align=center;verticalAlign=middle;strokeWidth=1;autosize=1;spacing=4;treeFolding=1;treeMoving=1;newEdgeStyle={&quot;edgeStyle&quot;:&quot;entityRelationEdgeStyle&quot;,&quot;startArrow&quot;:&quot;none&quot;,&quot;endArrow&quot;:&quot;none&quot;,&quot;segment&quot;:10,&quot;curved&quot;:1,&quot;sourcePerimeterSpacing&quot;:0,&quot;targetPerimeterSpacing&quot;:0};labelBackgroundColor=none;fillColor=#f5f5f5;fontColor=#333333;strokeColor=#666666;" parent="1" vertex="1">
          <mxGeometry x="-821" y="80.5" width="182" height="44" as="geometry" />
        </mxCell>
        <mxCell id="CUiqJiFjoZOIeFZz4wZD-76" value="" style="edgeStyle=entityRelationEdgeStyle;startArrow=none;endArrow=none;segment=10;curved=1;sourcePerimeterSpacing=0;targetPerimeterSpacing=0;rounded=1;labelBackgroundColor=none;fontColor=default;" parent="1" source="CUiqJiFjoZOIeFZz4wZD-27" target="CUiqJiFjoZOIeFZz4wZD-75" edge="1">
          <mxGeometry relative="1" as="geometry">
            <mxPoint x="-799" y="-83.5" as="sourcePoint" />
            <Array as="points">
              <mxPoint x="-791" y="28" />
              <mxPoint x="-791" y="-11" />
              <mxPoint x="-511" y="639" />
            </Array>
            <mxPoint x="-641" y="-22" as="targetPoint" />
          </mxGeometry>
        </mxCell>
        <mxCell id="CUiqJiFjoZOIeFZz4wZD-78" value="" style="edgeStyle=entityRelationEdgeStyle;startArrow=none;endArrow=none;segment=10;curved=1;sourcePerimeterSpacing=0;targetPerimeterSpacing=0;rounded=1;labelBackgroundColor=none;fontColor=default;" parent="1" source="CUiqJiFjoZOIeFZz4wZD-27" target="CUiqJiFjoZOIeFZz4wZD-74" edge="1">
          <mxGeometry relative="1" as="geometry">
            <mxPoint x="-799" y="-83.5" as="sourcePoint" />
            <Array as="points">
              <mxPoint x="-771" y="48" />
              <mxPoint x="-771" y="9" />
              <mxPoint x="-491" y="659" />
            </Array>
            <mxPoint x="-631" y="10" as="targetPoint" />
          </mxGeometry>
        </mxCell>
        <mxCell id="INvF27U33Evfr3bDGoLu-1" value="" style="ellipse;whiteSpace=wrap;html=1;aspect=fixed;fillColor=#FFFF33;strokeColor=default;strokeWidth=1;" parent="1" vertex="1">
          <mxGeometry x="721" y="97" width="13" height="13" as="geometry" />
        </mxCell>
        <mxCell id="66qhIik_lh2cy4dN3r72-2" value="" style="ellipse;whiteSpace=wrap;html=1;aspect=fixed;fillColor=#FFFF33;strokeColor=default;strokeWidth=1;" vertex="1" parent="1">
          <mxGeometry x="721" y="149" width="13" height="13" as="geometry" />
        </mxCell>
        <mxCell id="66qhIik_lh2cy4dN3r72-21" value="Недополученная прибыль, репутационные риски" style="whiteSpace=wrap;html=1;rounded=0;arcSize=50;align=center;verticalAlign=middle;strokeWidth=1;autosize=1;spacing=4;treeFolding=1;treeMoving=1;newEdgeStyle={&quot;edgeStyle&quot;:&quot;entityRelationEdgeStyle&quot;,&quot;startArrow&quot;:&quot;none&quot;,&quot;endArrow&quot;:&quot;none&quot;,&quot;segment&quot;:10,&quot;curved&quot;:1,&quot;sourcePerimeterSpacing&quot;:0,&quot;targetPerimeterSpacing&quot;:0};labelBackgroundColor=none;fillColor=#FFFFFF;fontColor=#333333;strokeColor=#666666;" vertex="1" parent="1">
          <mxGeometry x="980" y="110" width="182" height="44" as="geometry" />
        </mxCell>
        <mxCell id="66qhIik_lh2cy4dN3r72-22" value="" style="edgeStyle=entityRelationEdgeStyle;startArrow=none;endArrow=none;segment=10;curved=1;sourcePerimeterSpacing=0;targetPerimeterSpacing=0;rounded=1;labelBackgroundColor=none;fontColor=default;" edge="1" parent="1" target="66qhIik_lh2cy4dN3r72-21" source="CUiqJiFjoZOIeFZz4wZD-33">
          <mxGeometry relative="1" as="geometry">
            <mxPoint x="2110" y="-340.5" as="sourcePoint" />
            <Array as="points">
              <mxPoint x="2008" y="-224" />
            </Array>
          </mxGeometry>
        </mxCell>
        <mxCell id="66qhIik_lh2cy4dN3r72-23" value="" style="edgeStyle=entityRelationEdgeStyle;startArrow=none;endArrow=none;segment=10;curved=1;sourcePerimeterSpacing=0;targetPerimeterSpacing=0;rounded=1;labelBackgroundColor=none;fontColor=default;" edge="1" parent="1" source="CUiqJiFjoZOIeFZz4wZD-35" target="66qhIik_lh2cy4dN3r72-21">
          <mxGeometry relative="1" as="geometry">
            <mxPoint x="2139" y="-354.5" as="sourcePoint" />
            <Array as="points">
              <mxPoint x="2018" y="-214" />
            </Array>
            <mxPoint x="2092" y="-354.5" as="targetPoint" />
          </mxGeometry>
        </mxCell>
        <mxCell id="66qhIik_lh2cy4dN3r72-25" value="" style="ellipse;whiteSpace=wrap;html=1;aspect=fixed;fillColor=#FF9933;strokeColor=default;" vertex="1" parent="1">
          <mxGeometry x="-810" y="392.5" width="13" height="13" as="geometry" />
        </mxCell>
        <mxCell id="66qhIik_lh2cy4dN3r72-27" value="" style="ellipse;whiteSpace=wrap;html=1;aspect=fixed;fillColor=#FF9933;strokeColor=default;" vertex="1" parent="1">
          <mxGeometry x="-810" y="337.5" width="13" height="13" as="geometry" />
        </mxCell>
        <mxCell id="66qhIik_lh2cy4dN3r72-28" value="" style="ellipse;whiteSpace=wrap;html=1;aspect=fixed;fillColor=#FF9933;strokeColor=default;" vertex="1" parent="1">
          <mxGeometry x="-810" y="285.5" width="13" height="13" as="geometry" />
        </mxCell>
        <mxCell id="66qhIik_lh2cy4dN3r72-30" value="Ошибки в финансовых отчетах, штрафы" style="whiteSpace=wrap;html=1;rounded=0;arcSize=50;align=center;verticalAlign=middle;strokeWidth=1;autosize=1;spacing=4;treeFolding=1;treeMoving=1;newEdgeStyle={&quot;edgeStyle&quot;:&quot;entityRelationEdgeStyle&quot;,&quot;startArrow&quot;:&quot;none&quot;,&quot;endArrow&quot;:&quot;none&quot;,&quot;segment&quot;:10,&quot;curved&quot;:1,&quot;sourcePerimeterSpacing&quot;:0,&quot;targetPerimeterSpacing&quot;:0};labelBackgroundColor=none;fillColor=#FFFFFF;fontColor=#333333;strokeColor=#666666;" vertex="1" parent="1">
          <mxGeometry x="-1110" y="322" width="182" height="44" as="geometry" />
        </mxCell>
        <mxCell id="66qhIik_lh2cy4dN3r72-31" value="" style="edgeStyle=entityRelationEdgeStyle;startArrow=none;endArrow=none;segment=10;curved=1;sourcePerimeterSpacing=0;targetPerimeterSpacing=0;rounded=1;labelBackgroundColor=none;fontColor=default;" edge="1" parent="1" source="CUiqJiFjoZOIeFZz4wZD-39" target="66qhIik_lh2cy4dN3r72-30">
          <mxGeometry relative="1" as="geometry">
            <mxPoint x="-893" y="321.5" as="sourcePoint" />
            <Array as="points">
              <mxPoint x="-1014" y="462" />
            </Array>
            <mxPoint x="-1000" y="347.5" as="targetPoint" />
          </mxGeometry>
        </mxCell>
        <mxCell id="66qhIik_lh2cy4dN3r72-32" value="" style="edgeStyle=entityRelationEdgeStyle;startArrow=none;endArrow=none;segment=10;curved=1;sourcePerimeterSpacing=0;targetPerimeterSpacing=0;rounded=1;labelBackgroundColor=none;fontColor=default;" edge="1" parent="1" source="CUiqJiFjoZOIeFZz4wZD-41" target="66qhIik_lh2cy4dN3r72-30">
          <mxGeometry relative="1" as="geometry">
            <mxPoint x="-811" y="354.5" as="sourcePoint" />
            <Array as="points">
              <mxPoint x="-1004" y="472" />
            </Array>
            <mxPoint x="-918" y="384.5" as="targetPoint" />
          </mxGeometry>
        </mxCell>
        <mxCell id="66qhIik_lh2cy4dN3r72-33" value="Репутационные риски" style="whiteSpace=wrap;html=1;rounded=0;arcSize=50;align=center;verticalAlign=middle;strokeWidth=1;autosize=1;spacing=4;treeFolding=1;treeMoving=1;newEdgeStyle={&quot;edgeStyle&quot;:&quot;entityRelationEdgeStyle&quot;,&quot;startArrow&quot;:&quot;none&quot;,&quot;endArrow&quot;:&quot;none&quot;,&quot;segment&quot;:10,&quot;curved&quot;:1,&quot;sourcePerimeterSpacing&quot;:0,&quot;targetPerimeterSpacing&quot;:0};labelBackgroundColor=none;fillColor=#FFFFFF;fontColor=#333333;strokeColor=#666666;" vertex="1" parent="1">
          <mxGeometry x="-1110" y="220" width="182" height="44" as="geometry" />
        </mxCell>
        <mxCell id="66qhIik_lh2cy4dN3r72-34" value="" style="edgeStyle=entityRelationEdgeStyle;startArrow=none;endArrow=none;segment=10;curved=1;sourcePerimeterSpacing=0;targetPerimeterSpacing=0;rounded=1;labelBackgroundColor=none;fontColor=default;exitX=0.008;exitY=0.42;exitDx=0;exitDy=0;exitPerimeter=0;" edge="1" parent="1" source="CUiqJiFjoZOIeFZz4wZD-37" target="66qhIik_lh2cy4dN3r72-30">
          <mxGeometry relative="1" as="geometry">
            <mxPoint x="-811" y="354.5" as="sourcePoint" />
            <Array as="points">
              <mxPoint x="-1004" y="472" />
            </Array>
            <mxPoint x="-918" y="384.5" as="targetPoint" />
          </mxGeometry>
        </mxCell>
        <mxCell id="66qhIik_lh2cy4dN3r72-35" value="" style="edgeStyle=entityRelationEdgeStyle;startArrow=none;endArrow=none;segment=10;curved=1;sourcePerimeterSpacing=0;targetPerimeterSpacing=0;rounded=1;labelBackgroundColor=none;fontColor=default;" edge="1" parent="1" source="CUiqJiFjoZOIeFZz4wZD-43" target="66qhIik_lh2cy4dN3r72-33">
          <mxGeometry relative="1" as="geometry">
            <mxPoint x="-811" y="147.5" as="sourcePoint" />
            <Array as="points">
              <mxPoint x="-922" y="246" />
            </Array>
            <mxPoint x="-918" y="121.5" as="targetPoint" />
          </mxGeometry>
        </mxCell>
        <mxCell id="66qhIik_lh2cy4dN3r72-36" value="" style="ellipse;whiteSpace=wrap;html=1;aspect=fixed;fillColor=#FFFF33;strokeColor=default;strokeWidth=1;" vertex="1" parent="1">
          <mxGeometry x="-810" y="235.5" width="13" height="13" as="geometry" />
        </mxCell>
        <mxCell id="66qhIik_lh2cy4dN3r72-37" value="" style="ellipse;whiteSpace=wrap;html=1;aspect=fixed;fillColor=#FF9933;strokeColor=default;" vertex="1" parent="1">
          <mxGeometry x="-810" y="483.5" width="13" height="13" as="geometry" />
        </mxCell>
        <mxCell id="66qhIik_lh2cy4dN3r72-38" value="" style="ellipse;whiteSpace=wrap;html=1;aspect=fixed;fillColor=#FF9933;strokeColor=default;" vertex="1" parent="1">
          <mxGeometry x="-810" y="585.5" width="13" height="13" as="geometry" />
        </mxCell>
        <mxCell id="66qhIik_lh2cy4dN3r72-39" value="" style="ellipse;whiteSpace=wrap;html=1;aspect=fixed;fillColor=#FF9933;strokeColor=default;" vertex="1" parent="1">
          <mxGeometry x="-810" y="533.5" width="13" height="13" as="geometry" />
        </mxCell>
        <mxCell id="66qhIik_lh2cy4dN3r72-41" value="" style="ellipse;whiteSpace=wrap;html=1;aspect=fixed;fillColor=#FF9933;strokeColor=default;" vertex="1" parent="1">
          <mxGeometry x="-810" y="640.5" width="13" height="13" as="geometry" />
        </mxCell>
        <mxCell id="66qhIik_lh2cy4dN3r72-42" value="Репутационные риски, потеря конкурентного преимущества" style="whiteSpace=wrap;html=1;rounded=0;arcSize=50;align=center;verticalAlign=middle;strokeWidth=1;autosize=1;spacing=4;treeFolding=1;treeMoving=1;newEdgeStyle={&quot;edgeStyle&quot;:&quot;entityRelationEdgeStyle&quot;,&quot;startArrow&quot;:&quot;none&quot;,&quot;endArrow&quot;:&quot;none&quot;,&quot;segment&quot;:10,&quot;curved&quot;:1,&quot;sourcePerimeterSpacing&quot;:0,&quot;targetPerimeterSpacing&quot;:0};labelBackgroundColor=none;fillColor=#FFFFFF;fontColor=#333333;strokeColor=#666666;" vertex="1" parent="1">
          <mxGeometry x="-1110" y="460.5" width="182" height="57.5" as="geometry" />
        </mxCell>
        <mxCell id="66qhIik_lh2cy4dN3r72-43" value="" style="edgeStyle=entityRelationEdgeStyle;startArrow=none;endArrow=none;segment=10;curved=1;sourcePerimeterSpacing=0;targetPerimeterSpacing=0;rounded=1;labelBackgroundColor=none;fontColor=default;exitX=0;exitY=0.5;exitDx=0;exitDy=0;" edge="1" parent="1" source="CUiqJiFjoZOIeFZz4wZD-51" target="66qhIik_lh2cy4dN3r72-42">
          <mxGeometry relative="1" as="geometry">
            <mxPoint x="-811" y="409.5" as="sourcePoint" />
            <Array as="points">
              <mxPoint x="-994" y="482" />
            </Array>
            <mxPoint x="-918" y="354.5" as="targetPoint" />
          </mxGeometry>
        </mxCell>
        <mxCell id="66qhIik_lh2cy4dN3r72-44" value="Ошибки в отчетах, ошибки в принятии решений, ошибки в оценках" style="whiteSpace=wrap;html=1;rounded=0;arcSize=50;align=center;verticalAlign=middle;strokeWidth=1;autosize=1;spacing=4;treeFolding=1;treeMoving=1;newEdgeStyle={&quot;edgeStyle&quot;:&quot;entityRelationEdgeStyle&quot;,&quot;startArrow&quot;:&quot;none&quot;,&quot;endArrow&quot;:&quot;none&quot;,&quot;segment&quot;:10,&quot;curved&quot;:1,&quot;sourcePerimeterSpacing&quot;:0,&quot;targetPerimeterSpacing&quot;:0};labelBackgroundColor=none;fillColor=#FFFFFF;fontColor=#333333;strokeColor=#666666;" vertex="1" parent="1">
          <mxGeometry x="-1110" y="563.25" width="182" height="57.5" as="geometry" />
        </mxCell>
        <mxCell id="66qhIik_lh2cy4dN3r72-45" value="" style="edgeStyle=entityRelationEdgeStyle;startArrow=none;endArrow=none;segment=10;curved=1;sourcePerimeterSpacing=0;targetPerimeterSpacing=0;rounded=1;labelBackgroundColor=none;fontColor=default;exitX=0;exitY=0.5;exitDx=0;exitDy=0;entryX=1;entryY=0.5;entryDx=0;entryDy=0;" edge="1" parent="1" source="CUiqJiFjoZOIeFZz4wZD-45" target="66qhIik_lh2cy4dN3r72-44">
          <mxGeometry relative="1" as="geometry">
            <mxPoint x="-811" y="500.5" as="sourcePoint" />
            <Array as="points">
              <mxPoint x="-984" y="492" />
            </Array>
            <mxPoint x="-918" y="499.5" as="targetPoint" />
          </mxGeometry>
        </mxCell>
        <mxCell id="66qhIik_lh2cy4dN3r72-46" value="" style="edgeStyle=entityRelationEdgeStyle;startArrow=none;endArrow=none;segment=10;curved=1;sourcePerimeterSpacing=0;targetPerimeterSpacing=0;rounded=1;labelBackgroundColor=none;fontColor=default;" edge="1" parent="1" source="CUiqJiFjoZOIeFZz4wZD-47" target="66qhIik_lh2cy4dN3r72-44">
          <mxGeometry relative="1" as="geometry">
            <mxPoint x="-811" y="550.5" as="sourcePoint" />
            <Array as="points">
              <mxPoint x="-974" y="502" />
            </Array>
            <mxPoint x="-918" y="602.5" as="targetPoint" />
          </mxGeometry>
        </mxCell>
        <mxCell id="66qhIik_lh2cy4dN3r72-47" value="" style="edgeStyle=entityRelationEdgeStyle;startArrow=none;endArrow=none;segment=10;curved=1;sourcePerimeterSpacing=0;targetPerimeterSpacing=0;rounded=1;labelBackgroundColor=none;fontColor=default;exitX=0;exitY=0.5;exitDx=0;exitDy=0;entryX=1;entryY=0.5;entryDx=0;entryDy=0;" edge="1" parent="1" source="CUiqJiFjoZOIeFZz4wZD-49" target="66qhIik_lh2cy4dN3r72-44">
          <mxGeometry relative="1" as="geometry">
            <mxPoint x="-801" y="560.5" as="sourcePoint" />
            <Array as="points">
              <mxPoint x="-964" y="512" />
            </Array>
            <mxPoint x="-908" y="612.5" as="targetPoint" />
          </mxGeometry>
        </mxCell>
        <mxCell id="66qhIik_lh2cy4dN3r72-49" value="" style="ellipse;whiteSpace=wrap;html=1;aspect=fixed;fillColor=#FF9933;strokeColor=default;" vertex="1" parent="1">
          <mxGeometry x="-810" y="731" width="13" height="13" as="geometry" />
        </mxCell>
        <mxCell id="66qhIik_lh2cy4dN3r72-50" value="" style="ellipse;whiteSpace=wrap;html=1;aspect=fixed;fillColor=#FF9933;strokeColor=default;" vertex="1" parent="1">
          <mxGeometry x="-810" y="786" width="13" height="13" as="geometry" />
        </mxCell>
        <mxCell id="66qhIik_lh2cy4dN3r72-51" value="Репутационные риски, невыполнение обязательств перед клиентами" style="whiteSpace=wrap;html=1;rounded=0;arcSize=50;align=center;verticalAlign=middle;strokeWidth=1;autosize=1;spacing=4;treeFolding=1;treeMoving=1;newEdgeStyle={&quot;edgeStyle&quot;:&quot;entityRelationEdgeStyle&quot;,&quot;startArrow&quot;:&quot;none&quot;,&quot;endArrow&quot;:&quot;none&quot;,&quot;segment&quot;:10,&quot;curved&quot;:1,&quot;sourcePerimeterSpacing&quot;:0,&quot;targetPerimeterSpacing&quot;:0};labelBackgroundColor=none;fillColor=#FFFFFF;fontColor=#333333;strokeColor=#666666;" vertex="1" parent="1">
          <mxGeometry x="-1110" y="733" width="182" height="57.5" as="geometry" />
        </mxCell>
        <mxCell id="66qhIik_lh2cy4dN3r72-52" value="" style="edgeStyle=entityRelationEdgeStyle;startArrow=none;endArrow=none;segment=10;curved=1;sourcePerimeterSpacing=0;targetPerimeterSpacing=0;rounded=1;labelBackgroundColor=none;fontColor=default;exitX=0;exitY=0.5;exitDx=0;exitDy=0;entryX=1;entryY=0.5;entryDx=0;entryDy=0;" edge="1" parent="1" source="CUiqJiFjoZOIeFZz4wZD-55" target="66qhIik_lh2cy4dN3r72-51">
          <mxGeometry relative="1" as="geometry">
            <mxPoint x="-811" y="657.5" as="sourcePoint" />
            <Array as="points">
              <mxPoint x="-954" y="522" />
            </Array>
            <mxPoint x="-918" y="602.5" as="targetPoint" />
          </mxGeometry>
        </mxCell>
        <mxCell id="66qhIik_lh2cy4dN3r72-53" value="" style="edgeStyle=entityRelationEdgeStyle;startArrow=none;endArrow=none;segment=10;curved=1;sourcePerimeterSpacing=0;targetPerimeterSpacing=0;rounded=1;labelBackgroundColor=none;fontColor=default;exitX=0.019;exitY=0.514;exitDx=0;exitDy=0;exitPerimeter=0;" edge="1" parent="1" source="CUiqJiFjoZOIeFZz4wZD-57" target="66qhIik_lh2cy4dN3r72-51">
          <mxGeometry relative="1" as="geometry">
            <mxPoint x="-811" y="747.5" as="sourcePoint" />
            <Array as="points">
              <mxPoint x="-944" y="532" />
            </Array>
            <mxPoint x="-918" y="771.5" as="targetPoint" />
          </mxGeometry>
        </mxCell>
        <mxCell id="66qhIik_lh2cy4dN3r72-54" value="" style="group" vertex="1" connectable="0" parent="1">
          <mxGeometry x="-30" y="800" width="150" height="91.5" as="geometry" />
        </mxCell>
        <mxCell id="CUiqJiFjoZOIeFZz4wZD-3" value="" style="rounded=0;whiteSpace=wrap;html=1;" parent="66qhIik_lh2cy4dN3r72-54" vertex="1">
          <mxGeometry y="1.5" width="150" height="90" as="geometry" />
        </mxCell>
        <mxCell id="CUiqJiFjoZOIeFZz4wZD-4" value="&lt;b&gt;Легенда&lt;/b&gt;" style="text;html=1;align=center;verticalAlign=middle;whiteSpace=wrap;rounded=0;" parent="66qhIik_lh2cy4dN3r72-54" vertex="1">
          <mxGeometry width="150" height="30" as="geometry" />
        </mxCell>
        <mxCell id="CUiqJiFjoZOIeFZz4wZD-7" value="" style="ellipse;whiteSpace=wrap;html=1;aspect=fixed;fillColor=#FF1212;strokeColor=default;" parent="66qhIik_lh2cy4dN3r72-54" vertex="1">
          <mxGeometry x="10.714285714285714" y="70" width="13" height="13" as="geometry" />
        </mxCell>
        <mxCell id="CUiqJiFjoZOIeFZz4wZD-10" value="" style="ellipse;whiteSpace=wrap;html=1;aspect=fixed;fillColor=#FF9933;strokeColor=default;" parent="66qhIik_lh2cy4dN3r72-54" vertex="1">
          <mxGeometry x="10.714285714285714" y="50" width="13" height="13" as="geometry" />
        </mxCell>
        <mxCell id="CUiqJiFjoZOIeFZz4wZD-11" value="" style="ellipse;whiteSpace=wrap;html=1;aspect=fixed;fillColor=#FFFF33;strokeColor=default;" parent="66qhIik_lh2cy4dN3r72-54" vertex="1">
          <mxGeometry x="10.714285714285714" y="30" width="13" height="13" as="geometry" />
        </mxCell>
        <mxCell id="CUiqJiFjoZOIeFZz4wZD-15" value="Незначительный" style="text;html=1;align=left;verticalAlign=middle;whiteSpace=wrap;rounded=0;" parent="66qhIik_lh2cy4dN3r72-54" vertex="1">
          <mxGeometry x="24.642857142857142" y="21.5" width="64.28571428571428" height="30" as="geometry" />
        </mxCell>
        <mxCell id="CUiqJiFjoZOIeFZz4wZD-16" value="Значительный" style="text;html=1;align=left;verticalAlign=middle;whiteSpace=wrap;rounded=0;" parent="66qhIik_lh2cy4dN3r72-54" vertex="1">
          <mxGeometry x="24.642857142857142" y="41.5" width="64.28571428571428" height="30" as="geometry" />
        </mxCell>
        <mxCell id="CUiqJiFjoZOIeFZz4wZD-17" value="Критический" style="text;html=1;align=left;verticalAlign=middle;whiteSpace=wrap;rounded=0;" parent="66qhIik_lh2cy4dN3r72-54" vertex="1">
          <mxGeometry x="24.642857142857142" y="61.5" width="64.28571428571428" height="30" as="geometry" />
        </mxCell>
        <mxCell id="66qhIik_lh2cy4dN3r72-56" value="" style="ellipse;whiteSpace=wrap;html=1;aspect=fixed;fillColor=#FF1212;strokeColor=default;" vertex="1" parent="1">
          <mxGeometry x="720.0042857142856" y="465.5" width="13" height="13" as="geometry" />
        </mxCell>
        <mxCell id="66qhIik_lh2cy4dN3r72-57" value="" style="ellipse;whiteSpace=wrap;html=1;aspect=fixed;fillColor=#FF1212;strokeColor=default;" vertex="1" parent="1">
          <mxGeometry x="720.0042857142856" y="672" width="13" height="13" as="geometry" />
        </mxCell>
        <mxCell id="66qhIik_lh2cy4dN3r72-58" value="" style="ellipse;whiteSpace=wrap;html=1;aspect=fixed;fillColor=#FF1212;strokeColor=default;" vertex="1" parent="1">
          <mxGeometry x="-810.9957142857143" y="96" width="13" height="13" as="geometry" />
        </mxCell>
        <mxCell id="66qhIik_lh2cy4dN3r72-64" value="" style="ellipse;whiteSpace=wrap;html=1;aspect=fixed;fillColor=#FF1212;strokeColor=default;" vertex="1" parent="1">
          <mxGeometry x="720.0042857142856" y="724" width="13" height="13" as="geometry" />
        </mxCell>
        <mxCell id="66qhIik_lh2cy4dN3r72-67" value="" style="ellipse;whiteSpace=wrap;html=1;aspect=fixed;fillColor=#FF1212;strokeColor=default;" vertex="1" parent="1">
          <mxGeometry x="-810.9957142857143" y="149" width="13" height="13" as="geometry" />
        </mxCell>
        <mxCell id="66qhIik_lh2cy4dN3r72-69" value="Штрафы, репутационные риски, нарушение закона" style="whiteSpace=wrap;html=1;rounded=0;arcSize=50;align=center;verticalAlign=middle;strokeWidth=1;autosize=1;spacing=4;treeFolding=1;treeMoving=1;newEdgeStyle={&quot;edgeStyle&quot;:&quot;entityRelationEdgeStyle&quot;,&quot;startArrow&quot;:&quot;none&quot;,&quot;endArrow&quot;:&quot;none&quot;,&quot;segment&quot;:10,&quot;curved&quot;:1,&quot;sourcePerimeterSpacing&quot;:0,&quot;targetPerimeterSpacing&quot;:0};labelBackgroundColor=none;fillColor=#FFFFFF;fontColor=#333333;strokeColor=#666666;" vertex="1" parent="1">
          <mxGeometry x="980" y="473.5" width="182" height="44" as="geometry" />
        </mxCell>
        <mxCell id="66qhIik_lh2cy4dN3r72-71" value="" style="group" vertex="1" connectable="0" parent="1">
          <mxGeometry x="710" y="502" width="182" height="44" as="geometry" />
        </mxCell>
        <mxCell id="CUiqJiFjoZOIeFZz4wZD-62" value="Искажение данных" style="whiteSpace=wrap;html=1;rounded=1;arcSize=50;align=center;verticalAlign=middle;strokeWidth=1;autosize=1;spacing=4;treeFolding=1;treeMoving=1;newEdgeStyle={&quot;edgeStyle&quot;:&quot;entityRelationEdgeStyle&quot;,&quot;startArrow&quot;:&quot;none&quot;,&quot;endArrow&quot;:&quot;none&quot;,&quot;segment&quot;:10,&quot;curved&quot;:1,&quot;sourcePerimeterSpacing&quot;:0,&quot;targetPerimeterSpacing&quot;:0};labelBackgroundColor=none;fillColor=#f5f5f5;fontColor=#333333;strokeColor=#666666;" parent="66qhIik_lh2cy4dN3r72-71" vertex="1">
          <mxGeometry width="182" height="44" as="geometry" />
        </mxCell>
        <mxCell id="66qhIik_lh2cy4dN3r72-61" value="" style="ellipse;whiteSpace=wrap;html=1;aspect=fixed;fillColor=#FF1212;strokeColor=default;" vertex="1" parent="66qhIik_lh2cy4dN3r72-71">
          <mxGeometry x="10.00428571428563" y="15.5" width="13" height="13" as="geometry" />
        </mxCell>
        <mxCell id="66qhIik_lh2cy4dN3r72-74" style="edgeStyle=entityRelationEdgeStyle;rounded=0;orthogonalLoop=1;jettySize=auto;html=1;startArrow=none;endArrow=none;segment=10;curved=1;sourcePerimeterSpacing=0;targetPerimeterSpacing=0;exitX=1;exitY=0.5;exitDx=0;exitDy=0;" edge="1" parent="1" source="CUiqJiFjoZOIeFZz4wZD-62" target="66qhIik_lh2cy4dN3r72-69">
          <mxGeometry relative="1" as="geometry" />
        </mxCell>
        <mxCell id="66qhIik_lh2cy4dN3r72-75" value="Штрафы, репутационные риски, нарушение закона" style="whiteSpace=wrap;html=1;rounded=0;arcSize=50;align=center;verticalAlign=middle;strokeWidth=1;autosize=1;spacing=4;treeFolding=1;treeMoving=1;newEdgeStyle={&quot;edgeStyle&quot;:&quot;entityRelationEdgeStyle&quot;,&quot;startArrow&quot;:&quot;none&quot;,&quot;endArrow&quot;:&quot;none&quot;,&quot;segment&quot;:10,&quot;curved&quot;:1,&quot;sourcePerimeterSpacing&quot;:0,&quot;targetPerimeterSpacing&quot;:0};labelBackgroundColor=none;fillColor=#FFFFFF;fontColor=#333333;strokeColor=#666666;" vertex="1" parent="1">
          <mxGeometry x="980" y="685" width="182" height="44" as="geometry" />
        </mxCell>
        <mxCell id="66qhIik_lh2cy4dN3r72-78" value="Штрафы, репутационные риски, нарушение закона" style="whiteSpace=wrap;html=1;rounded=0;arcSize=50;align=center;verticalAlign=middle;strokeWidth=1;autosize=1;spacing=4;treeFolding=1;treeMoving=1;newEdgeStyle={&quot;edgeStyle&quot;:&quot;entityRelationEdgeStyle&quot;,&quot;startArrow&quot;:&quot;none&quot;,&quot;endArrow&quot;:&quot;none&quot;,&quot;segment&quot;:10,&quot;curved&quot;:1,&quot;sourcePerimeterSpacing&quot;:0,&quot;targetPerimeterSpacing&quot;:0};labelBackgroundColor=none;fillColor=#FFFFFF;fontColor=#333333;strokeColor=#666666;" vertex="1" parent="1">
          <mxGeometry x="-1110" y="96" width="182" height="44" as="geometry" />
        </mxCell>
      </root>
    </mxGraphModel>
  </diagram>
</mxfile>
